<svg width="379" height="359" viewBox="0 0 379 359" fill="none" xmlns="http://www.w3.org/2000/svg">
<g opacity="0.67">
<path opacity="0.67" d="M189.5 358.8L0 249.4L189.5 140L378.9 249.4L189.5 358.8Z" fill="#0F054C"/>
</g>
<g opacity="0.67">
<path opacity="0.67" d="M189.5 341.9L29.3999 249.4L189.5 157L349.6 249.4L189.5 341.9Z" fill="#0F054C"/>
</g>
<g opacity="0.9">
<path opacity="0.9" d="M189.5 322.199L63.5 249.399L189.5 176.699L315.4 249.399L189.5 322.199Z" fill="#080344"/>
</g>
<path d="M69.1998 241.701C67.7998 241.701 66.4998 241.301 65.2998 240.701L20.8998 215.101C20.1998 214.701 19.7998 214.001 19.7998 213.201C19.7998 212.401 20.1998 211.701 20.8998 211.301L101.1 165.001C101.2 164.901 101.4 164.901 101.5 165.001L101.9 165.201L149.5 192.701C150.2 193.101 150.6 193.801 150.6 194.601C150.6 195.401 150.2 196.101 149.5 196.501L72.8998 240.701C71.8998 241.301 70.5998 241.701 69.1998 241.701ZM101.5 165.701L21.4998 211.901C21.0998 212.101 20.7998 212.601 20.7998 213.101C20.7998 213.601 20.9998 214.001 21.4998 214.301L65.8998 239.901C67.9998 241.101 70.6998 241.101 72.6998 239.901L149.3 195.701C149.7 195.501 150 195.001 150 194.501C150 194.001 149.8 193.601 149.3 193.301L101.5 165.701Z" fill="#42E8E0"/>
<path d="M155.5 180.101L150.8 182.501L104.1 155.501C103.3 155.001 102 155.101 101.1 155.601L20.5998 202.101C19.7998 201.701 16.2998 200.001 16.2998 200.001L17.9998 204.401C18.0998 204.601 18.1998 204.801 18.4998 204.901L67.6998 233.301C68.4998 233.801 69.7998 233.701 70.6998 233.201L153.1 185.601C153.5 185.401 153.7 185.101 153.8 184.901L155.5 180.101Z" fill="url(#paint0_linear_953_41262)"/>
<path d="M154.7 180.901L70.2998 229.701C69.3998 230.201 67.9998 230.301 67.1998 229.801L16.7998 200.701C15.9998 200.201 16.0998 199.401 16.9998 198.901L101.4 150.101C102.3 149.601 103.7 149.501 104.5 150.001L154.9 179.101C155.8 179.501 155.7 180.301 154.7 180.901Z" fill="url(#paint1_linear_953_41262)"/>
<path d="M154.7 180.402L70.3 229.202C69.4 229.702 68 229.802 67.2 229.302L16.8 200.202C16.5 200.002 16.4 199.902 16.3 199.702C16.2 200.102 16.3 200.502 16.8 200.702L67.2 229.802C68 230.302 69.4 230.202 70.3 229.702L154.7 180.902C155.3 180.502 155.6 180.102 155.4 179.602C155.4 179.902 155.1 180.202 154.7 180.402Z" fill="white"/>
<path d="M44.7998 219.102V218.202C44.7998 218.102 44.8998 218.102 44.8998 218.102L48.1998 220.002C48.2998 220.002 48.2998 220.102 48.2998 220.202V221.102C48.2998 221.202 48.1998 221.202 48.1998 221.202L44.8998 219.302C44.8998 219.302 44.7998 219.202 44.7998 219.102Z" fill="#2842A2"/>
<path d="M49.6997 221.902V221.002C49.6997 220.902 49.7997 220.902 49.7997 220.902L53.0997 222.802C53.1997 222.802 53.1997 222.902 53.1997 223.002V223.902C53.1997 224.002 53.0997 224.002 53.0997 224.002L49.7997 222.102C49.7997 222.102 49.6997 222.002 49.6997 221.902Z" fill="#2842A2"/>
<path d="M45.1999 207.303L115.4 166.803C115.9 166.503 116.4 166.503 116.9 166.803L141.9 181.303C142.3 181.503 142.3 182.003 141.9 182.203L71.6999 222.703C71.1999 223.003 70.6999 223.003 70.1999 222.703L45.1999 208.303C44.7999 208.003 44.7999 207.503 45.1999 207.303Z" fill="#ADB1F2"/>
<path d="M45.1999 208.202L45.4999 208.302L115.4 167.902C115.9 167.602 116.4 167.602 116.9 167.902L141.6 182.202L141.9 182.102C142.3 181.902 142.3 181.402 141.9 181.202L116.9 166.702C116.4 166.402 115.9 166.402 115.4 166.702L45.1999 207.202C44.7999 207.502 44.7999 208.002 45.1999 208.202Z" fill="#9198DB"/>
<path d="M118.8 170.402L54.0999 207.702L50.8999 206.502L116 168.902L118.8 170.402Z" fill="#24126A"/>
<path d="M125.4 174.303L68.2 207.303L65.5 205.703L122.7 172.703L125.4 174.303Z" fill="#24126A"/>
<path d="M129.7 176.803L62.4 215.603L59.7 214.103L127 175.203L129.7 176.803Z" fill="#24126A"/>
<path d="M134.1 179.303L66.7 218.103L64 216.603L131.3 177.703L134.1 179.303Z" fill="#24126A"/>
<path d="M138.4 181.803L71.0999 220.603L68.3999 219.103L135.7 180.203L138.4 181.803Z" fill="#24126A"/>
<path d="M54.0999 207.703L51.4 209.303L48.7 207.703L51.4 206.203L54.0999 207.703Z" fill="#24126A"/>
<path d="M71.5 205.401L58.1 213.101L55.3 211.601L68.9001 203.801L71.5 205.401Z" fill="#24126A"/>
<path d="M70.1997 189.102L89.0997 178.202C89.7997 177.802 89.7997 177.102 89.0997 176.702L76.1997 169.202C75.4997 168.802 74.2997 168.802 73.4997 169.202L54.5997 180.102C53.8997 180.502 53.8997 181.202 54.5997 181.602L67.4997 189.102C68.1997 189.602 69.3997 189.602 70.1997 189.102Z" fill="url(#paint2_linear_953_41262)"/>
<path d="M54.5998 180.702L73.4998 169.802C74.1998 169.402 75.3998 169.402 76.1998 169.802L89.0998 177.302C89.2998 177.402 89.4998 177.602 89.5998 177.802C89.7998 177.402 89.5998 177.002 89.0998 176.702L76.1998 169.202C75.4998 168.802 74.2998 168.802 73.4998 169.202L54.5998 180.102C54.0998 180.402 53.8998 180.802 54.0998 181.202C54.1998 181.002 54.2998 180.902 54.5998 180.702Z" fill="#9198DB"/>
<path d="M155.3 178.901L144.6 115.501L145.5 115.101L144.2 114.401C143.9 114.201 143.6 114.201 143.2 114.501L57.8999 163.801C57.1999 164.201 56.6999 165.201 56.7999 166.001L67.5998 229.801C67.6998 230.101 67.7998 230.401 67.9998 230.401L69.2999 231.101L69.4998 229.901H69.3999L154.2 180.901C154.9 180.601 155.4 179.601 155.3 178.901Z" fill="url(#paint3_linear_953_41262)"/>
<path d="M58.3998 165.502L56.9998 164.902C56.7998 165.302 56.7998 165.602 56.7998 166.002L67.5998 229.802C67.6998 230.102 67.7998 230.402 67.9998 230.402L69.2998 231.102L69.4998 229.902H69.3998L73.6998 227.402L58.3998 165.502Z" fill="url(#paint4_linear_953_41262)"/>
<path d="M155.6 181.802L70.2998 231.102C69.5998 231.502 69.0997 231.302 68.9997 230.602L58.1998 166.802C58.0998 166.102 58.5998 165.002 59.2998 164.602L144.6 115.302C145.3 114.902 145.8 115.102 145.9 115.802L156.7 179.602C156.8 180.402 156.3 181.402 155.6 181.802Z" fill="#453C9E"/>
<path d="M309.9 241.701C308.5 241.701 307.2 241.301 306 240.701L229.4 196.501C228.7 196.101 228.3 195.401 228.3 194.601C228.3 193.801 228.7 193.101 229.4 192.701L277.4 165.001C277.5 164.901 277.7 164.901 277.8 165.001L358 211.301C358.7 211.701 359.1 212.401 359.1 213.201C359.1 214.001 358.7 214.701 358 215.101L313.7 240.601C312.5 241.301 311.2 241.701 309.9 241.701ZM277.6 165.701L277.4 165.801L229.8 193.301C229.4 193.501 229.1 194.001 229.1 194.501C229.1 195.001 229.3 195.401 229.8 195.701L306.4 239.901C308.5 241.101 311.2 241.101 313.2 239.901L357.6 214.301C358 214.101 358.3 213.601 358.3 213.101C358.3 212.601 358.1 212.201 357.6 211.901L277.6 165.701Z" fill="#42E8E0"/>
<path d="M223.6 180.105L228.3 182.505L275 155.505C275.8 155.005 277.1 155.105 278 155.605L358.5 202.105C359.3 201.705 362.8 200.005 362.8 200.005L361.1 204.404C361 204.604 360.9 204.805 360.6 204.904L311.4 233.305C310.6 233.805 309.3 233.704 308.4 233.204L226 185.605C225.6 185.405 225.4 185.104 225.3 184.904L223.6 180.105Z" fill="url(#paint5_linear_953_41262)"/>
<path d="M224.3 180.904L308.7 229.704C309.6 230.204 311 230.305 311.8 229.805L362.2 200.705C363 200.205 362.9 199.404 362 198.904L277.6 150.105C276.7 149.605 275.3 149.505 274.5 150.005L224.1 179.105C223.3 179.505 223.4 180.304 224.3 180.904Z" fill="url(#paint6_linear_953_41262)"/>
<path d="M224.3 180.405L308.7 229.205C309.6 229.705 311 229.805 311.8 229.305L362.2 200.205C362.5 200.005 362.6 199.905 362.7 199.705C362.8 200.105 362.7 200.505 362.2 200.705L311.8 229.805C311 230.305 309.6 230.205 308.7 229.705L224.3 180.905C223.7 180.505 223.4 180.105 223.6 179.605C223.7 179.905 224 180.205 224.3 180.405Z" fill="white"/>
<path d="M334.3 219.105V218.205C334.3 218.105 334.2 218.105 334.2 218.105L330.9 220.005C330.8 220.005 330.8 220.105 330.8 220.205V221.105C330.8 221.205 330.9 221.205 330.9 221.205L334.2 219.305C334.2 219.305 334.3 219.205 334.3 219.105Z" fill="#2842A2"/>
<path d="M329.4 221.906V221.006C329.4 220.906 329.3 220.906 329.3 220.906L326 222.806C325.9 222.806 325.9 222.906 325.9 223.006V223.906C325.9 224.006 326 224.006 326 224.006L329.3 222.106C329.3 222.106 329.4 222.006 329.4 221.906Z" fill="#2842A2"/>
<path d="M333.9 207.303L263.7 166.803C263.2 166.503 262.7 166.503 262.2 166.803L237.2 181.303C236.8 181.503 236.8 182.003 237.2 182.203L307.3 222.703C307.8 223.003 308.3 223.003 308.8 222.703L333.8 208.303C334.3 208.003 334.3 207.503 333.9 207.303Z" fill="#ADB1F2"/>
<path d="M333.9 208.203L333.6 208.303L263.7 168.003C263.2 167.703 262.7 167.703 262.2 168.003L237.5 182.303L237.2 182.203C236.8 182.003 236.8 181.503 237.2 181.303L262.2 166.803C262.7 166.503 263.2 166.503 263.7 166.803L333.9 207.303C334.3 207.503 334.3 208.003 333.9 208.203Z" fill="#9198DB"/>
<path d="M260.3 170.402L325 207.702L328.2 206.502L263 168.902L260.3 170.402Z" fill="#24126A"/>
<path d="M253.7 174.303L310.9 207.303L313.6 205.703L256.4 172.703L253.7 174.303Z" fill="#24126A"/>
<path d="M249.4 176.803L316.7 215.603L319.4 214.103L252.1 175.203L249.4 176.803Z" fill="#24126A"/>
<path d="M245 179.303L312.3 218.103L315 216.603L247.7 177.703L245 179.303Z" fill="#24126A"/>
<path d="M240.7 181.803L308 220.603L310.7 219.103L243.4 180.203L240.7 181.803Z" fill="#24126A"/>
<path d="M325 207.703L327.7 209.303L330.4 207.703L327.7 206.203L325 207.703Z" fill="#24126A"/>
<path d="M307.6 205.401L321 213.101L323.7 211.601L310.2 203.801L307.6 205.401Z" fill="#24126A"/>
<path d="M308.9 189.106L290 178.206C289.3 177.806 289.3 177.106 290 176.706L302.9 169.206C303.6 168.806 304.8 168.806 305.6 169.206L324.5 180.106C325.2 180.506 325.2 181.206 324.5 181.606L311.6 189.106C310.8 189.606 309.7 189.606 308.9 189.106Z" fill="url(#paint7_linear_953_41262)"/>
<path d="M324.5 180.706L305.6 169.806C304.9 169.406 303.7 169.406 302.9 169.806L290 177.306C289.8 177.406 289.6 177.606 289.5 177.806C289.3 177.406 289.5 177.006 290 176.706L302.9 169.206C303.6 168.806 304.8 168.806 305.6 169.206L324.5 180.106C325 180.406 325.2 180.806 325 181.206C324.9 181.006 324.8 180.906 324.5 180.706Z" fill="#9198DB"/>
<path d="M223.8 178.903L234.5 115.603L233.6 115.203L234.9 114.503C235.2 114.303 235.5 114.303 235.9 114.603L321.2 163.903C321.9 164.303 322.4 165.303 322.3 166.103L311.5 229.903C311.4 230.203 311.3 230.503 311.1 230.503L309.8 231.203L309.6 230.003H309.7L224.9 181.003C224.2 180.603 223.6 179.603 223.8 178.903Z" fill="url(#paint8_linear_953_41262)"/>
<path d="M320.7 165.502L322.1 164.902C322.3 165.302 322.3 165.602 322.3 166.002L311.5 229.802C311.4 230.102 311.3 230.402 311.1 230.402L309.8 231.102L309.6 229.902H309.7L305.4 227.402L320.7 165.502Z" fill="url(#paint9_linear_953_41262)"/>
<path d="M223.5 181.802L308.8 231.102C309.5 231.502 310 231.302 310.1 230.602L320.9 166.802C321 166.102 320.5 165.002 319.8 164.602L234.5 115.302C233.8 114.902 233.3 115.102 233.2 115.802L222.4 179.602C222.3 180.402 222.8 181.402 223.5 181.802Z" fill="#453C9E"/>
<path d="M189.5 256.999L110.1 211.099L189.5 165.199L269 211.099L189.5 256.999Z" fill="#BCBEFF"/>
<path d="M189.5 244.401L131.8 211.101L189.5 177.801L247.3 211.101L189.5 244.401Z" fill="#453C9E"/>
<path d="M189.5 180.001L245.3 212.201L247.3 211.101L189.5 177.801L131.8 211.101L133.8 212.201L189.5 180.001Z" fill="white"/>
<path d="M269 211.098V237.098L189.5 282.898V256.998L269 211.098Z" fill="url(#paint10_linear_953_41262)"/>
<path d="M110.1 211.098V237.098L189.5 282.898V256.998L110.1 211.098Z" fill="#24126A"/>
<g opacity="0.51">
<path opacity="0.51" d="M115.5 222.801V231.001L184.2 270.601V262.401L115.5 222.801Z" fill="#453C9E"/>
</g>
<path d="M189.5 255.501L111.4 210.301L110.1 211.101L189.5 257.001L269 211.101L267.7 210.301L189.5 255.501Z" fill="white"/>
<path d="M257.1 229.301V234.001L201.5 266.101V261.401L257.1 229.301Z" fill="#453C9E"/>
<path opacity="0.51" d="M110.1 211.098V237.098L189.5 282.898V256.998L110.1 211.098Z" fill="#453C9E"/>
<path d="M166.4 255.601L152 247.301V249.001L166.4 257.301V255.601Z" fill="#42E8E0"/>
<path d="M149.9 246.101L146 243.801V245.501L149.9 247.801V246.101Z" fill="#42E8E0"/>
<path d="M131.6 235.498L123.7 230.898V232.698L131.6 237.298V235.498Z" fill="#42E8E0"/>
<path d="M138.9 239.698L133.1 236.398V238.098L138.9 241.498V239.698Z" fill="#42E8E0"/>
<path d="M144.3 242.898L140.4 240.598V242.298L144.3 244.598V242.898Z" fill="#42E8E0"/>
<path d="M189.6 189.201L187.1 187.701L189.6 186.301L192.1 187.701L189.6 189.201Z" fill="#42E8E0"/>
<path opacity="0.1" d="M194.7 192.099L192.1 190.699L194.7 189.199L197.2 190.699L194.7 192.099Z" fill="#42E8E0"/>
<path opacity="0.4" d="M199.7 195.002L197.2 193.602L199.7 192.102L202.2 193.602L199.7 195.002Z" fill="#42E8E0"/>
<path d="M204.8 197.9L202.2 196.5L204.8 195L207.3 196.5L204.8 197.9Z" fill="#42E8E0"/>
<path opacity="0.4" d="M209.8 200.802L207.3 199.402L209.8 197.902L212.3 199.402L209.8 200.802Z" fill="#42E8E0"/>
<path d="M214.8 203.801L212.3 202.301L214.8 200.801L217.4 202.301L214.8 203.801Z" fill="#42E8E0"/>
<path d="M219.9 206.701L217.4 205.201L219.9 203.801L222.4 205.201L219.9 206.701Z" fill="#42E8E0"/>
<path d="M224.9 209.599L222.4 208.099L224.9 206.699L227.5 208.099L224.9 209.599Z" fill="#42E8E0"/>
<path opacity="0.1" d="M230 212.502L227.5 211.002L230 209.602L232.5 211.002L230 212.502Z" fill="#42E8E0"/>
<path d="M184.6 192.099L182 190.699L184.6 189.199L187.1 190.699L184.6 192.099Z" fill="#42E8E0"/>
<path d="M189.6 194.998L187.1 193.598L189.6 192.098L192.1 193.598L189.6 194.998Z" fill="#42E8E0"/>
<path d="M194.6 197.9L192.1 196.5L194.6 195L197.2 196.5L194.6 197.9Z" fill="#42E8E0"/>
<path d="M199.7 200.898L197.2 199.398L199.7 197.898L202.2 199.398L199.7 200.898Z" fill="#42E8E0"/>
<path d="M204.7 203.798L202.2 202.298L204.7 200.898L207.3 202.298L204.7 203.798Z" fill="#42E8E0"/>
<path d="M209.8 206.701L207.3 205.201L209.8 203.801L212.3 205.201L209.8 206.701Z" fill="#42E8E0"/>
<path d="M214.8 209.599L212.3 208.099L214.8 206.699L217.3 208.099L214.8 209.599Z" fill="#42E8E0"/>
<path d="M219.9 212.498L217.3 211.098L219.9 209.598L222.4 211.098L219.9 212.498Z" fill="#42E8E0"/>
<path d="M224.9 215.4L222.4 214L224.9 212.5L227.4 214L224.9 215.4Z" fill="#42E8E0"/>
<path d="M179.5 195.002L177 193.602L179.5 192.102L182 193.602L179.5 195.002Z" fill="#42E8E0"/>
<path d="M184.5 198L182 196.5L184.5 195L187.1 196.5L184.5 198Z" fill="#42E8E0"/>
<path d="M189.6 200.9L187.1 199.4L189.6 198L192.1 199.4L189.6 200.9Z" fill="#42E8E0"/>
<path opacity="0.1" d="M194.6 203.802L192.1 202.302L194.6 200.902L197.1 202.302L194.6 203.802Z" fill="#42E8E0"/>
<path opacity="0.4" d="M199.7 206.701L197.1 205.201L199.7 203.801L202.2 205.201L199.7 206.701Z" fill="#42E8E0"/>
<path opacity="0.4" d="M204.7 209.603L202.2 208.203L204.7 206.703L207.2 208.203L204.7 209.603Z" fill="#42E8E0"/>
<path d="M209.8 212.502L207.2 211.102L209.8 209.602L212.3 211.102L209.8 212.502Z" fill="#42E8E0"/>
<path d="M214.8 215.4L212.3 214L214.8 212.5L217.3 214L214.8 215.4Z" fill="#42E8E0"/>
<path d="M219.9 218.302L217.3 216.902L219.9 215.402L222.4 216.902L219.9 218.302Z" fill="#42E8E0"/>
<path opacity="0.4" d="M174.4 198.002L171.9 196.502L174.4 195.102L177 196.502L174.4 198.002Z" fill="#42E8E0"/>
<path opacity="0.4" d="M179.5 200.9L177 199.4L179.5 198L182 199.4L179.5 200.9Z" fill="#42E8E0"/>
<path opacity="0.1" d="M184.5 203.802L182 202.302L184.5 200.902L187 202.302L184.5 203.802Z" fill="#42E8E0"/>
<path d="M189.6 206.701L187 205.301L189.6 203.801L192.1 205.301L189.6 206.701Z" fill="#42E8E0"/>
<path d="M194.6 209.603L192.1 208.203L194.6 206.703L197.1 208.203L194.6 209.603Z" fill="#42E8E0"/>
<path d="M199.7 212.502L197.1 211.102L199.7 209.602L202.2 211.102L199.7 212.502Z" fill="#42E8E0"/>
<path opacity="0.4" d="M204.7 215.4L202.2 214L204.7 212.5L207.2 214L204.7 215.4Z" fill="#42E8E0"/>
<path d="M209.7 218.402L207.2 216.902L209.7 215.402L212.3 216.902L209.7 218.402Z" fill="#42E8E0"/>
<path d="M214.8 221.302L212.3 219.802L214.8 218.402L217.3 219.802L214.8 221.302Z" fill="#42E8E0"/>
<path d="M169.4 200.9L166.8 199.4L169.4 198L171.9 199.4L169.4 200.9Z" fill="#42E8E0"/>
<path d="M174.4 203.798L171.9 202.398L174.4 200.898L176.9 202.398L174.4 203.798Z" fill="#42E8E0"/>
<path d="M179.5 206.701L176.9 205.301L179.5 203.801L182 205.301L179.5 206.701Z" fill="#42E8E0"/>
<path d="M184.5 209.599L182 208.199L184.5 206.699L187 208.199L184.5 209.599Z" fill="#42E8E0"/>
<path d="M189.5 212.502L187 211.102L189.5 209.602L192.1 211.102L189.5 212.502Z" fill="#42E8E0"/>
<path d="M194.6 215.5L192.1 214L194.6 212.5L197.1 214L194.6 215.5Z" fill="#42E8E0"/>
<path d="M199.6 218.4L197.1 216.9L199.6 215.5L202.2 216.9L199.6 218.4Z" fill="#42E8E0"/>
<path d="M204.7 221.298L202.2 219.798L204.7 218.398L207.2 219.798L204.7 221.298Z" fill="#42E8E0"/>
<path d="M209.7 224.201L207.2 222.701L209.7 221.301L212.2 222.701L209.7 224.201Z" fill="#42E8E0"/>
<path d="M164.3 203.802L161.8 202.402L164.3 200.902L166.8 202.402L164.3 203.802Z" fill="#42E8E0"/>
<path d="M169.3 206.701L166.8 205.301L169.3 203.801L171.9 205.301L169.3 206.701Z" fill="#42E8E0"/>
<path opacity="0.4" d="M174.4 209.603L171.9 208.203L174.4 206.703L176.9 208.203L174.4 209.603Z" fill="#42E8E0"/>
<path d="M179.4 212.602L176.9 211.102L179.4 209.602L182 211.102L179.4 212.602Z" fill="#42E8E0"/>
<path opacity="0.1" d="M184.5 215.502L182 214.002L184.5 212.602L187 214.002L184.5 215.502Z" fill="#42E8E0"/>
<path d="M189.5 218.404L187 216.904L189.5 215.504L192 216.904L189.5 218.404Z" fill="#42E8E0"/>
<path d="M194.6 221.302L192 219.802L194.6 218.402L197.1 219.802L194.6 221.302Z" fill="#42E8E0"/>
<path d="M199.6 224.201L197.1 222.801L199.6 221.301L202.1 222.801L199.6 224.201Z" fill="#42E8E0"/>
<path d="M204.7 227.103L202.1 225.703L204.7 224.203L207.2 225.703L204.7 227.103Z" fill="#42E8E0"/>
<path d="M159.2 206.701L156.7 205.301L159.2 203.801L161.8 205.301L159.2 206.701Z" fill="#42E8E0"/>
<path d="M164.3 209.699L161.8 208.199L164.3 206.699L166.8 208.199L164.3 209.699Z" fill="#42E8E0"/>
<path opacity="0.4" d="M169.3 212.599L166.8 211.099L169.3 209.699L171.8 211.099L169.3 212.599Z" fill="#42E8E0"/>
<path d="M174.4 215.502L171.8 214.002L174.4 212.602L176.9 214.002L174.4 215.502Z" fill="#42E8E0"/>
<path d="M179.4 218.4L176.9 216.9L179.4 215.5L181.9 216.9L179.4 218.4Z" fill="#42E8E0"/>
<path opacity="0.1" d="M184.5 221.302L181.9 219.902L184.5 218.402L187 219.902L184.5 221.302Z" fill="#42E8E0"/>
<path opacity="0.4" d="M189.5 224.201L187 222.801L189.5 221.301L192 222.801L189.5 224.201Z" fill="#42E8E0"/>
<path d="M194.5 227.099L192 225.699L194.5 224.199L197.1 225.699L194.5 227.099Z" fill="#42E8E0"/>
<path opacity="0.1" d="M199.6 230.002L197.1 228.602L199.6 227.102L202.1 228.602L199.6 230.002Z" fill="#42E8E0"/>
<path d="M154.2 209.701L151.6 208.201L154.2 206.801L156.7 208.201L154.2 209.701Z" fill="#42E8E0"/>
<path opacity="0.4" d="M159.2 212.599L156.7 211.099L159.2 209.699L161.7 211.099L159.2 212.599Z" fill="#42E8E0"/>
<path d="M164.3 215.502L161.7 214.002L164.3 212.602L166.8 214.002L164.3 215.502Z" fill="#42E8E0"/>
<path d="M169.3 218.4L166.8 217L169.3 215.5L171.8 217L169.3 218.4Z" fill="#42E8E0"/>
<path d="M174.3 221.302L171.8 219.902L174.3 218.402L176.9 219.902L174.3 221.302Z" fill="#42E8E0"/>
<path d="M179.4 224.201L176.9 222.801L179.4 221.301L181.9 222.801L179.4 224.201Z" fill="#42E8E0"/>
<path d="M184.4 227.099L181.9 225.699L184.4 224.199L187 225.699L184.4 227.099Z" fill="#42E8E0"/>
<path opacity="0.4" d="M189.5 230.102L187 228.602L189.5 227.102L192 228.602L189.5 230.102Z" fill="#42E8E0"/>
<path d="M194.5 233.002L192 231.502L194.5 230.102L197 231.502L194.5 233.002Z" fill="#42E8E0"/>
<path d="M149.1 212.599L146.6 211.099L149.1 209.699L151.6 211.099L149.1 212.599Z" fill="#42E8E0"/>
<path opacity="0.1" d="M154.1 215.498L151.6 213.998L154.1 212.598L156.7 213.998L154.1 215.498Z" fill="#42E8E0"/>
<path d="M159.2 218.4L156.7 217L159.2 215.5L161.7 217L159.2 218.4Z" fill="#42E8E0"/>
<path d="M164.2 221.298L161.7 219.898L164.2 218.398L166.8 219.898L164.2 221.298Z" fill="#42E8E0"/>
<path d="M169.3 224.201L166.8 222.801L169.3 221.301L171.8 222.801L169.3 224.201Z" fill="#42E8E0"/>
<path d="M174.3 227.199L171.8 225.699L174.3 224.199L176.8 225.699L174.3 227.199Z" fill="#42E8E0"/>
<path opacity="0.4" d="M179.4 230.099L176.8 228.599L179.4 227.199L181.9 228.599L179.4 230.099Z" fill="#42E8E0"/>
<path d="M184.4 232.998L181.9 231.498L184.4 230.098L186.9 231.498L184.4 232.998Z" fill="#42E8E0"/>
<path d="M189.5 235.9L186.9 234.4L189.5 233L192 234.4L189.5 235.9Z" fill="#42E8E0"/>
<path d="M189.5 211.899L110.1 166.099L189.5 120.199L269 166.099L189.5 211.899Z" fill="#BCBEFF"/>
<path d="M189.5 199.399L131.8 166.099L189.5 132.699L247.3 166.099L189.5 199.399Z" fill="#453C9E"/>
<path d="M189.5 134.999L245.3 167.199L247.3 166.099L189.5 132.699L131.8 166.099L133.8 167.199L189.5 134.999Z" fill="white"/>
<path d="M269 166.098V192.098L189.5 237.898V211.898L269 166.098Z" fill="url(#paint11_linear_953_41262)"/>
<path d="M110.1 166.098V192.098L189.5 237.898V211.898L110.1 166.098Z" fill="#24126A"/>
<g opacity="0.51">
<path opacity="0.51" d="M115.5 177.801V185.901L184.2 225.601V217.401L115.5 177.801Z" fill="#453C9E"/>
</g>
<path d="M189.5 210.501L111.4 165.301L110.1 166.101L189.5 211.901L269 166.101L267.7 165.301L189.5 210.501Z" fill="white"/>
<path d="M257.1 184.301V189.001L201.5 221.101V216.401L257.1 184.301Z" fill="#453C9E"/>
<path opacity="0.51" d="M110.1 166.098V192.098L189.5 237.898V211.898L110.1 166.098Z" fill="#453C9E"/>
<path d="M166.4 210.601L152 202.301V204.001L166.4 212.301V210.601Z" fill="#42E8E0"/>
<path d="M149.9 201.101L146 198.801V200.501L149.9 202.801V201.101Z" fill="#42E8E0"/>
<path d="M131.6 190.498L123.7 185.898V187.598L131.6 192.298V190.498Z" fill="#42E8E0"/>
<path d="M138.9 194.698L133.1 191.398V193.098L138.9 196.498V194.698Z" fill="#42E8E0"/>
<path d="M144.3 197.898L140.4 195.598V197.298L144.3 199.598V197.898Z" fill="#42E8E0"/>
<path d="M189.6 144.201L187.1 142.701L189.6 141.301L192.1 142.701L189.6 144.201Z" fill="#42E8E0"/>
<path opacity="0.1" d="M194.7 147.099L192.1 145.599L194.7 144.199L197.2 145.599L194.7 147.099Z" fill="#42E8E0"/>
<path opacity="0.4" d="M199.7 150.002L197.2 148.602L199.7 147.102L202.2 148.602L199.7 150.002Z" fill="#42E8E0"/>
<path d="M204.8 152.9L202.2 151.5L204.8 150L207.3 151.5L204.8 152.9Z" fill="#42E8E0"/>
<path opacity="0.4" d="M209.8 155.802L207.3 154.402L209.8 152.902L212.3 154.402L209.8 155.802Z" fill="#42E8E0"/>
<path d="M214.8 158.801L212.3 157.301L214.8 155.801L217.4 157.301L214.8 158.801Z" fill="#42E8E0"/>
<path d="M219.9 161.701L217.4 160.201L219.9 158.801L222.4 160.201L219.9 161.701Z" fill="#42E8E0"/>
<path d="M224.9 164.599L222.4 163.099L224.9 161.699L227.5 163.099L224.9 164.599Z" fill="#42E8E0"/>
<path opacity="0.1" d="M230 167.502L227.5 166.002L230 164.602L232.5 166.002L230 167.502Z" fill="#42E8E0"/>
<path d="M184.6 147.099L182 145.699L184.6 144.199L187.1 145.699L184.6 147.099Z" fill="#42E8E0"/>
<path d="M189.6 149.998L187.1 148.598L189.6 147.098L192.1 148.598L189.6 149.998Z" fill="#42E8E0"/>
<path d="M194.6 152.9L192.1 151.5L194.6 150L197.2 151.5L194.6 152.9Z" fill="#42E8E0"/>
<path opacity="0.8" d="M199.7 155.898L197.2 154.398L199.7 152.898L202.2 154.398L199.7 155.898Z" fill="#FF2C9C"/>
<path d="M204.7 158.798L202.2 157.298L204.7 155.898L207.3 157.298L204.7 158.798Z" fill="#42E8E0"/>
<path d="M209.8 161.701L207.3 160.201L209.8 158.801L212.3 160.201L209.8 161.701Z" fill="#42E8E0"/>
<path opacity="0.8" d="M214.8 164.599L212.3 163.099L214.8 161.699L217.3 163.099L214.8 164.599Z" fill="url(#paint12_radial_953_41262)"/>
<path d="M219.9 167.498L217.3 165.998L219.9 164.598L222.4 165.998L219.9 167.498Z" fill="#42E8E0"/>
<path opacity="0.8" d="M224.9 170.4L222.4 169L224.9 167.5L227.4 169L224.9 170.4Z" fill="#FF2C9C"/>
<path d="M179.5 150.002L177 148.602L179.5 147.102L182 148.602L179.5 150.002Z" fill="#42E8E0"/>
<path opacity="0.8" d="M184.5 153L182 151.5L184.5 150L187.1 151.5L184.5 153Z" fill="#FF2C9C"/>
<path d="M189.6 155.9L187.1 154.4L189.6 153L192.1 154.4L189.6 155.9Z" fill="#42E8E0"/>
<path opacity="0.1" d="M194.6 158.802L192.1 157.302L194.6 155.902L197.1 157.302L194.6 158.802Z" fill="#42E8E0"/>
<path opacity="0.4" d="M199.7 161.701L197.1 160.201L199.7 158.801L202.2 160.201L199.7 161.701Z" fill="#42E8E0"/>
<path opacity="0.4" d="M204.7 164.603L202.2 163.103L204.7 161.703L207.2 163.103L204.7 164.603Z" fill="#42E8E0"/>
<path d="M209.8 167.502L207.2 166.102L209.8 164.602L212.3 166.102L209.8 167.502Z" fill="#42E8E0"/>
<path d="M214.8 170.4L212.3 169L214.8 167.5L217.3 169L214.8 170.4Z" fill="#42E8E0"/>
<path d="M219.9 173.302L217.3 171.902L219.9 170.402L222.4 171.902L219.9 173.302Z" fill="#42E8E0"/>
<path opacity="0.4" d="M174.4 153L171.9 151.5L174.4 150L177 151.5L174.4 153Z" fill="#42E8E0"/>
<path opacity="0.4" d="M179.5 155.9L177 154.4L179.5 153L182 154.4L179.5 155.9Z" fill="#42E8E0"/>
<path opacity="0.1" d="M184.5 158.798L182 157.298L184.5 155.898L187 157.298L184.5 158.798Z" fill="#42E8E0"/>
<path d="M189.6 161.701L187 160.201L189.6 158.801L192.1 160.201L189.6 161.701Z" fill="#42E8E0"/>
<path d="M194.6 164.599L192.1 163.199L194.6 161.699L197.1 163.199L194.6 164.599Z" fill="#42E8E0"/>
<path opacity="0.8" d="M199.7 167.502L197.1 166.102L199.7 164.602L202.2 166.102L199.7 167.502Z" fill="#FF2C9C"/>
<path opacity="0.4" d="M204.7 170.4L202.2 169L204.7 167.5L207.2 169L204.7 170.4Z" fill="#42E8E0"/>
<path d="M209.7 173.298L207.2 171.898L209.7 170.398L212.3 171.898L209.7 173.298Z" fill="#42E8E0"/>
<path d="M214.8 176.301L212.3 174.801L214.8 173.301L217.3 174.801L214.8 176.301Z" fill="#42E8E0"/>
<path opacity="0.8" d="M169.4 155.9L166.8 154.4L169.4 153L171.9 154.4L169.4 155.9Z" fill="#FF2C9C"/>
<path d="M174.4 158.798L171.9 157.298L174.4 155.898L176.9 157.298L174.4 158.798Z" fill="#42E8E0"/>
<path d="M179.5 161.701L176.9 160.301L179.5 158.801L182 160.301L179.5 161.701Z" fill="#42E8E0"/>
<path d="M184.5 164.599L182 163.199L184.5 161.699L187 163.199L184.5 164.599Z" fill="#42E8E0"/>
<path opacity="0.8" d="M189.5 167.502L187 166.102L189.5 164.602L192.1 166.102L189.5 167.502Z" fill="#FF2C9C"/>
<path opacity="0.8" d="M194.6 170.4L192.1 169L194.6 167.5L197.1 169L194.6 170.4Z" fill="#FF2C9C"/>
<path d="M199.6 173.398L197.1 171.898L199.6 170.398L202.2 171.898L199.6 173.398Z" fill="#42E8E0"/>
<path d="M204.7 176.298L202.2 174.798L204.7 173.398L207.2 174.798L204.7 176.298Z" fill="#42E8E0"/>
<path d="M209.7 179.201L207.2 177.701L209.7 176.301L212.2 177.701L209.7 179.201Z" fill="#42E8E0"/>
<path d="M164.3 158.802L161.8 157.402L164.3 155.902L166.8 157.402L164.3 158.802Z" fill="#42E8E0"/>
<path d="M169.3 161.701L166.8 160.301L169.3 158.801L171.9 160.301L169.3 161.701Z" fill="#42E8E0"/>
<path opacity="0.4" d="M174.4 164.603L171.9 163.203L174.4 161.703L176.9 163.203L174.4 164.603Z" fill="#42E8E0"/>
<path opacity="0.8" d="M179.4 167.502L176.9 166.102L179.4 164.602L182 166.102L179.4 167.502Z" fill="#FF2C9C"/>
<path opacity="0.1" d="M184.5 170.504L182 169.004L184.5 167.504L187 169.004L184.5 170.504Z" fill="#42E8E0"/>
<path d="M189.5 173.404L187 171.904L189.5 170.504L192 171.904L189.5 173.404Z" fill="#42E8E0"/>
<path d="M194.6 176.302L192 174.802L194.6 173.402L197.1 174.802L194.6 176.302Z" fill="#42E8E0"/>
<path opacity="0.8" d="M199.6 179.201L197.1 177.701L199.6 176.301L202.1 177.701L199.6 179.201Z" fill="#FF2C9C"/>
<path d="M204.7 182.103L202.1 180.703L204.7 179.203L207.2 180.703L204.7 182.103Z" fill="#42E8E0"/>
<path d="M159.2 161.701L156.7 160.301L159.2 158.801L161.8 160.301L159.2 161.701Z" fill="#42E8E0"/>
<path d="M164.3 164.599L161.8 163.199L164.3 161.699L166.8 163.199L164.3 164.599Z" fill="#42E8E0"/>
<path opacity="0.4" d="M169.3 167.602L166.8 166.102L169.3 164.602L171.8 166.102L169.3 167.602Z" fill="#42E8E0"/>
<path d="M174.4 170.502L171.8 169.002L174.4 167.602L176.9 169.002L174.4 170.502Z" fill="#42E8E0"/>
<path d="M179.4 173.4L176.9 171.9L179.4 170.5L181.9 171.9L179.4 173.4Z" fill="#42E8E0"/>
<path opacity="0.1" d="M184.5 176.302L181.9 174.802L184.5 173.402L187 174.802L184.5 176.302Z" fill="#42E8E0"/>
<path opacity="0.4" d="M189.5 179.201L187 177.801L189.5 176.301L192 177.801L189.5 179.201Z" fill="#42E8E0"/>
<path d="M194.5 182.099L192 180.699L194.5 179.199L197.1 180.699L194.5 182.099Z" fill="#42E8E0"/>
<path opacity="0.1" d="M199.6 185.002L197.1 183.602L199.6 182.102L202.1 183.602L199.6 185.002Z" fill="#42E8E0"/>
<path d="M154.2 164.699L151.6 163.199L154.2 161.699L156.7 163.199L154.2 164.699Z" fill="#42E8E0"/>
<path opacity="0.4" d="M159.2 167.599L156.7 166.099L159.2 164.699L161.7 166.099L159.2 167.599Z" fill="#42E8E0"/>
<path d="M164.3 170.498L161.7 168.998L164.3 167.598L166.8 168.998L164.3 170.498Z" fill="#42E8E0"/>
<path d="M169.3 173.4L166.8 171.9L169.3 170.5L171.8 171.9L169.3 173.4Z" fill="#42E8E0"/>
<path d="M174.3 176.298L171.8 174.898L174.3 173.398L176.9 174.898L174.3 176.298Z" fill="#42E8E0"/>
<path d="M179.4 179.201L176.9 177.801L179.4 176.301L181.9 177.801L179.4 179.201Z" fill="#42E8E0"/>
<path d="M184.4 182.099L181.9 180.699L184.4 179.199L187 180.699L184.4 182.099Z" fill="#42E8E0"/>
<path opacity="0.4" d="M189.5 184.998L187 183.598L189.5 182.098L192 183.598L189.5 184.998Z" fill="#42E8E0"/>
<path d="M194.5 188L192 186.5L194.5 185L197 186.5L194.5 188Z" fill="#42E8E0"/>
<path d="M149.1 167.599L146.6 166.099L149.1 164.699L151.6 166.099L149.1 167.599Z" fill="#42E8E0"/>
<path opacity="0.1" d="M154.1 170.498L151.6 168.998L154.1 167.598L156.7 168.998L154.1 170.498Z" fill="#42E8E0"/>
<path opacity="0.8" d="M159.2 173.4L156.7 172L159.2 170.5L161.7 172L159.2 173.4Z" fill="#FF2C9C"/>
<path d="M164.2 176.298L161.7 174.898L164.2 173.398L166.8 174.898L164.2 176.298Z" fill="#42E8E0"/>
<path d="M169.3 179.201L166.8 177.801L169.3 176.301L171.8 177.801L169.3 179.201Z" fill="#42E8E0"/>
<path d="M174.3 182.099L171.8 180.699L174.3 179.199L176.8 180.699L174.3 182.099Z" fill="#42E8E0"/>
<path opacity="0.4" d="M179.4 185.098L176.8 183.598L179.4 182.098L181.9 183.598L179.4 185.098Z" fill="#42E8E0"/>
<path opacity="0.8" d="M184.4 187.998L181.9 186.498L184.4 185.098L186.9 186.498L184.4 187.998Z" fill="#FF2C9C"/>
<path d="M189.5 190.9L186.9 189.4L189.5 188L192 189.4L189.5 190.9Z" fill="#42E8E0"/>
<path d="M275 351.902C273.6 351.902 272.3 351.502 271.1 350.902L226 324.802C225.3 324.402 224.9 323.702 224.9 322.802C224.9 321.902 225.3 321.302 226 320.802L307.7 273.602C307.8 273.502 308 273.502 308.1 273.602L356.9 301.802C357.6 302.202 358 302.902 358 303.802C358 304.602 357.6 305.302 356.9 305.802L278.9 350.802C277.8 351.502 276.4 351.902 275 351.902ZM307.9 274.602L226.5 321.602C226.1 321.802 225.8 322.302 225.8 322.802C225.8 323.302 226.1 323.702 226.5 324.002L271.6 350.102C273.7 351.302 276.4 351.302 278.5 350.102L356.5 305.102C356.9 304.902 357.2 304.402 357.2 303.902C357.2 303.402 356.9 303.002 356.5 302.702L307.9 274.602Z" fill="#42E8E0"/>
<path d="M308 255.501L297.1 191.101L298 190.701L296.7 189.901C296.4 189.701 296.1 189.701 295.7 190.001L208.9 240.101C208.2 240.501 207.6 241.601 207.8 242.301L218.7 307.301C218.8 307.601 218.9 307.901 219.2 308.001L220.5 308.701L220.7 307.501H220.6L306.9 257.701C307.6 257.301 308.1 256.201 308 255.501Z" fill="url(#paint13_linear_953_41262)"/>
<path d="M209.3 241.901L207.9 241.301C207.7 241.701 207.7 242.101 207.7 242.401L218.6 307.401C218.7 307.701 218.8 308.001 219.1 308.101L220.4 308.801L220.6 307.601H220.5L224.9 305.101L209.3 241.901Z" fill="url(#paint14_linear_953_41262)"/>
<path d="M308.2 258.502L221.4 308.602C220.7 309.002 220.2 308.802 220 308.102L209.1 243.102C209 242.402 209.5 241.302 210.2 240.902L297 190.802C297.7 190.402 298.2 190.602 298.4 191.302L309.3 256.302C309.5 257.002 308.9 258.002 308.2 258.502Z" fill="#24126A"/>
<g opacity="0.51">
<path opacity="0.51" d="M295.9 194.902L212.2 243.202L222.6 304.402L306.2 256.102L295.9 194.902Z" fill="#453C9E"/>
</g>
<path d="M362.8 289.201L358.1 291.701L310.6 264.301C309.8 263.801 308.4 263.901 307.5 264.401L225.6 311.701C224.8 311.301 221.2 309.501 221.2 309.501L222.9 314.001C223 314.201 223.1 314.401 223.4 314.501L273.4 343.401C274.2 343.901 275.6 343.801 276.5 343.301L360.3 294.901C360.7 294.701 360.9 294.401 361 294.201L362.8 289.201Z" fill="url(#paint15_linear_953_41262)"/>
<path d="M362.1 290.002L276.2 339.602C275.3 340.102 273.8 340.202 273 339.702L221.7 310.102C220.9 309.602 221 308.802 221.9 308.302L307.8 258.702C308.7 258.202 310.2 258.102 311 258.602L362.3 288.202C363.1 288.602 363 289.402 362.1 290.002Z" fill="url(#paint16_linear_953_41262)"/>
<path d="M362.1 289.502L276.2 339.102C275.3 339.602 273.8 339.702 273 339.202L221.7 309.602C221.4 309.402 221.3 309.302 221.2 309.002C221.1 309.402 221.2 309.802 221.7 310.002L273 339.602C273.8 340.102 275.2 340.002 276.2 339.502L362.1 289.902C362.7 289.502 363 289.002 362.8 288.602C362.7 289.002 362.5 289.302 362.1 289.502Z" fill="white"/>
<path d="M250.2 328.902V328.002C250.2 327.902 250.3 327.902 250.3 327.902L253.6 329.802C253.7 329.802 253.7 329.902 253.7 330.002V330.902C253.7 331.002 253.6 331.002 253.6 331.002L250.3 329.102C250.3 329.102 250.2 329.002 250.2 328.902Z" fill="#2842A2"/>
<path d="M255.2 331.703V330.803C255.2 330.703 255.3 330.703 255.3 330.703L258.6 332.603C258.7 332.603 258.7 332.703 258.7 332.803V333.703C258.7 333.803 258.6 333.803 258.6 333.803L255.3 331.903C255.2 331.903 255.2 331.803 255.2 331.703Z" fill="#2842A2"/>
<path d="M235 307.402L306.4 266.202C306.9 265.902 307.5 265.902 307.9 266.202L333.3 280.902C333.7 281.102 333.7 281.602 333.3 281.802L261.9 323.002C261.4 323.302 260.8 323.302 260.4 323.002L234.9 308.302C234.7 308.102 234.7 307.602 235 307.402Z" fill="#ADB1F2"/>
<path d="M235 308.302L235.3 308.402L306.5 267.302C307 267.002 307.6 267.002 308 267.302L333.2 281.902L333.5 281.802C333.9 281.602 333.9 281.102 333.5 280.902L308.1 266.202C307.6 265.902 307 265.902 306.6 266.202L235.2 307.402C234.7 307.602 234.7 308.102 235 308.302Z" fill="#9198DB"/>
<path d="M309.9 269.901L247.9 305.701L245.1 304.101L307.2 268.301L309.9 269.901Z" fill="#24126A"/>
<path d="M316.7 273.799L258.5 307.399L255.7 305.799L313.9 272.199L316.7 273.799Z" fill="#24126A"/>
<path d="M321.1 276.299L252.6 315.899L249.8 314.299L318.3 274.699L321.1 276.299Z" fill="#24126A"/>
<path d="M325.5 278.801L257 318.401L254.2 316.801L322.7 277.301L325.5 278.801Z" fill="#24126A"/>
<path d="M329.9 281.401L261.4 320.901L258.6 319.301L327.1 279.801L329.9 281.401Z" fill="#24126A"/>
<path d="M244.1 307.799L241.4 309.399L238.6 307.799L241.4 306.199L244.1 307.799Z" fill="#24126A"/>
<path d="M253.9 310.002L248.1 313.302L245.4 311.702L251.1 308.402L253.9 310.002Z" fill="#24126A"/>
<path d="M309.2 317.303L328.5 306.203C329.3 305.803 329.3 305.103 328.5 304.603L315.3 297.003C314.5 296.603 313.3 296.603 312.6 297.003L293.3 308.103C292.5 308.503 292.5 309.203 293.3 309.703L306.5 317.303C307.2 317.803 308.4 317.803 309.2 317.303Z" fill="url(#paint17_linear_953_41262)"/>
<path d="M293.3 308.801L312.6 297.701C313.4 297.301 314.6 297.301 315.3 297.701L328.5 305.301C328.7 305.401 328.9 305.601 329 305.801C329.2 305.401 329 305.001 328.5 304.701L315.3 297.101C314.5 296.701 313.3 296.701 312.6 297.101L293.3 308.201C292.8 308.501 292.6 308.901 292.8 309.301C292.9 309.101 293.1 308.901 293.3 308.801Z" fill="#9198DB"/>
<g opacity="0.11">
<g opacity="0.11">
<path opacity="0.11" d="M307.9 258.6L222 308.2C221.1 308.7 219.6 308.8 218.8 308.3L167.5 278.7C166.7 278.2 166.8 277.4 167.7 276.9L253.6 227.3C254.5 226.8 256 226.7 256.8 227.2L308.1 256.8C309 257.2 308.9 258 307.9 258.6Z" fill="url(#paint18_linear_953_41262)"/>
<path opacity="0.11" d="M221.7 267.498L241 256.398C241.8 255.998 241.8 255.298 241 254.798L227.8 247.198C227 246.798 225.8 246.798 225.1 247.198L205.8 258.298C205 258.698 205 259.398 205.8 259.898L219 267.498C219.8 267.898 221 267.898 221.7 267.498Z" fill="url(#paint19_linear_953_41262)"/>
<path opacity="0.11" d="M205.8 258.898L225.1 247.798C225.9 247.398 227.1 247.398 227.8 247.798L241 255.398C241.2 255.498 241.4 255.698 241.5 255.898C241.7 255.498 241.5 255.098 241 254.798L227.8 247.198C227 246.798 225.8 246.798 225.1 247.198L205.8 258.298C205.3 258.598 205.1 258.998 205.3 259.398C205.5 259.198 205.6 259.098 205.8 258.898Z" fill="#9198DB"/>
<g opacity="0.11">
<path opacity="0.11" d="M197.4 284.8L268.8 243.6C269.3 243.3 269.9 243.3 270.3 243.6L295.7 258.3C296.1 258.5 296.1 259 295.7 259.2L224.4 300.5C223.9 300.8 223.3 300.8 222.9 300.5L197.4 285.8C197 285.6 197 285.1 197.4 284.8Z" fill="#ADB1F2"/>
<path opacity="0.11" d="M197.4 285.802L197.7 285.902L268.9 244.802C269.4 244.502 270 244.502 270.4 244.802L295.6 259.402L295.9 259.302C296.3 259.102 296.3 258.602 295.9 258.402L270.5 243.702C270 243.402 269.4 243.402 269 243.702L197.6 284.902C197 285.102 197 285.602 197.4 285.802Z" fill="#9198DB"/>
<g opacity="0.11">
<path opacity="0.11" d="M289.1 257.297L226.9 293.197L229.3 294.697L291.6 258.797L289.1 257.297Z" fill="#24126A"/>
<path opacity="0.11" d="M282.5 253.5L223.4 287.7L225.9 289.1L285 255L282.5 253.5Z" fill="#24126A"/>
<path opacity="0.11" d="M219 290.199L213.5 293.399L215.9 294.799L221.5 291.699L219 290.199Z" fill="#24126A"/>
<path opacity="0.11" d="M223.9 295L220 297.2L222.5 298.6L226.3 296.4L223.9 295Z" fill="#24126A"/>
<path opacity="0.11" d="M278.4 251.199L209.4 290.999L211.8 292.499L280.9 252.599L278.4 251.199Z" fill="#24126A"/>
<path opacity="0.11" d="M274.3 248.797L205.3 288.697L207.7 290.097L276.8 250.197L274.3 248.797Z" fill="#24126A"/>
<path opacity="0.11" d="M270.2 246.398L201.1 286.298L203.6 287.698L272.7 247.898L270.2 246.398Z" fill="#24126A"/>
</g>
</g>
</g>
</g>
<path d="M243.7 281.103L250.5 277.203L250.7 278.303L243.9 282.303L243.7 281.103Z" fill="#42E8E0"/>
<path d="M251.6 276.502L255.3 274.402L255.5 275.602L251.8 277.702L251.6 276.502Z" fill="#42E8E0"/>
<path d="M261 271.102L263.7 269.602L263.9 270.702L261.2 272.302L261 271.102Z" fill="#42E8E0"/>
<path d="M259.1 272.203L260 271.703L260.2 272.903L259.3 273.403L259.1 272.203Z" fill="#42E8E0"/>
<path d="M256.4 273.801L258 272.801L258.2 274.001L256.6 274.901L256.4 273.801Z" fill="#42E8E0"/>
<path d="M249.1 272.1L251.8 270.5L252 271.7L249.3 273.3L249.1 272.1Z" fill="#42E8E0"/>
<path d="M242.8 275.703L248.1 272.703L248.3 273.903L243 276.903L242.8 275.703Z" fill="#42E8E0"/>
<path d="M250.3 256.702L255.6 253.602L255.7 254.802L250.5 257.802L250.3 256.702Z" fill="#42E8E0"/>
<path d="M247.6 258.203L249.3 257.203L249.5 258.403L247.8 259.403L247.6 258.203Z" fill="#42E8E0"/>
<path d="M251.2 262L256.4 259L256.6 260.2L251.4 263.2L251.2 262Z" fill="#42E8E0"/>
<path d="M248.5 263.602L250.2 262.602L250.4 263.802L248.7 264.802L248.5 263.602Z" fill="#42E8E0"/>
<path d="M246.5 233.401L236.6 239.101L236.4 238.001L246.3 232.301L246.5 233.401Z" fill="#42E8E0"/>
<path d="M249.9 231.401L247.5 232.801L247.3 231.701L249.7 230.301L249.9 231.401Z" fill="#42E8E0"/>
<path d="M267.2 230.302L257.4 236.002L257.2 234.802L267 229.102L267.2 230.302Z" fill="#42E8E0"/>
<path d="M270.7 228.302L268.3 229.702L268.1 228.502L270.5 227.102L270.7 228.302Z" fill="#42E8E0"/>
<path d="M239.7 240.302L237.1 241.802L236.9 240.602L239.5 239.102L239.7 240.302Z" fill="#42E8E0"/>
<path d="M256 236.802L253.3 238.302L253.1 237.202L255.8 235.602L256 236.802Z" fill="#42E8E0"/>
<path d="M246 236.7L240.8 239.7L240.6 238.5L245.8 235.5L246 236.7Z" fill="#42E8E0"/>
<path d="M248.7 235.102L247 236.102L246.8 234.902L248.5 233.902L248.7 235.102Z" fill="#42E8E0"/>
<path d="M255 231.501L249.8 234.501L249.6 233.301L254.8 230.301L255 231.501Z" fill="#42E8E0"/>
<path d="M257.7 229.903L256 230.903L255.8 229.703L257.5 228.703L257.7 229.903Z" fill="#42E8E0"/>
<path d="M255.5 234.102L252.8 235.602L252.6 234.502L255.3 232.902L255.5 234.102Z" fill="#42E8E0"/>
<path d="M261.8 230.501L256.6 233.501L256.4 232.301L261.6 229.301L261.8 230.501Z" fill="#42E8E0"/>
<path d="M264.5 228.901L262.8 229.901L262.6 228.701L264.3 227.801L264.5 228.901Z" fill="#42E8E0"/>
<path d="M243 241.303L237.5 244.503L237.3 243.303L242.8 240.203L243 241.303Z" fill="#42E8E0"/>
<path d="M248 238.501L244 240.801L243.8 239.601L247.8 237.301L248 238.501Z" fill="#42E8E0"/>
<path d="M251.7 236.303L249 237.903L248.8 236.703L251.5 235.203L251.7 236.303Z" fill="#42E8E0"/>
<path d="M277.6 224.303L272.1 227.503L271.9 226.303L277.4 223.203L277.6 224.303Z" fill="#42E8E0"/>
<path d="M282.5 221.501L278.6 223.701L278.4 222.601L282.3 220.301L282.5 221.501Z" fill="#42E8E0"/>
<path d="M286.2 219.302L283.6 220.902L283.4 219.702L286 218.102L286.2 219.302Z" fill="#42E8E0"/>
<path d="M275.4 259.803L280.9 256.703L281.1 257.903L275.6 261.003L275.4 259.803Z" fill="#42E8E0"/>
<path d="M270.4 262.702L274.4 260.402L274.6 261.602L270.6 263.902L270.4 262.702Z" fill="#42E8E0"/>
<path d="M266.7 264.901L269.4 263.301L269.6 264.501L266.9 266.001L266.7 264.901Z" fill="#42E8E0"/>
<path d="M273.6 263.803L279.1 260.703L279.3 261.903L273.8 265.003L273.6 263.803Z" fill="#42E8E0"/>
<path d="M268.6 266.702L272.6 264.402L272.8 265.602L268.8 267.902L268.6 266.702Z" fill="#42E8E0"/>
<path d="M264.9 268.901L267.6 267.301L267.8 268.501L265.1 270.001L264.9 268.901Z" fill="#42E8E0"/>
<path d="M251.6 258.901L253.4 257.801L253.6 259.001L251.8 260.001L251.6 258.901Z" fill="#42E8E0"/>
<path d="M248.1 260.9L250.5 259.5L250.7 260.6L248.3 262.1L248.1 260.9Z" fill="#42E8E0"/>
<path d="M243.5 244.001L238 247.201L237.8 246.001L243.3 242.801L243.5 244.001Z" fill="#42E8E0"/>
<path d="M248.4 241.1L244.5 243.4L244.3 242.2L248.3 240L248.4 241.1Z" fill="#42E8E0"/>
<path d="M252.2 239.001L249.5 240.501L249.3 239.401L252 237.801L252.2 239.001Z" fill="#42E8E0"/>
<path d="M240.3 248.802L238.5 249.902L238.3 248.702L240.1 247.602L240.3 248.802Z" fill="#42E8E0"/>
<path d="M243.8 246.802L241.3 248.202L241.1 247.002L243.6 245.602L243.8 246.802Z" fill="#42E8E0"/>
<path d="M248.7 243.903L244.8 246.203L244.6 245.003L248.5 242.703L248.7 243.903Z" fill="#42E8E0"/>
<path d="M254.1 266.303L255.9 265.203L256.1 266.403L254.3 267.503L254.1 266.303Z" fill="#42E8E0"/>
<path d="M250.6 268.302L253 266.902L253.2 268.102L250.8 269.502L250.6 268.302Z" fill="#42E8E0"/>
<path d="M245.6 271.202L249.6 268.902L249.8 270.102L245.8 272.302L245.6 271.202Z" fill="#42E8E0"/>
<path d="M256.9 261.902L260.8 259.602L261 260.802L257.1 263.102L256.9 261.902Z" fill="#42E8E0"/>
<path d="M250.4 265.402L255.7 262.402L255.9 263.502L250.6 266.602L250.4 265.402Z" fill="#42E8E0"/>
<path d="M247.8 267L249.4 266L249.6 267.2L248 268.1L247.8 267Z" fill="#42E8E0"/>
<path d="M245.2 268.5L246.8 267.5L247 268.7L245.4 269.6L245.2 268.5Z" fill="#42E8E0"/>
<path d="M245.5 253.305L250.8 250.305L251 251.405L245.7 254.505L245.5 253.305Z" fill="#42E8E0"/>
<path d="M242.8 254.802L244.5 253.902L244.7 255.102L243 256.002L242.8 254.802Z" fill="#42E8E0"/>
<path d="M245.9 250.102L247.7 249.102L247.9 250.202L246.1 251.302L245.9 250.102Z" fill="#42E8E0"/>
<path d="M252.4 252.303L254.2 251.203L254.4 252.403L252.6 253.503L252.4 252.303Z" fill="#42E8E0"/>
<path d="M255 250.803L259.5 248.203L259.7 249.403L255.2 251.903L255 250.803Z" fill="#42E8E0"/>
<path d="M260.2 247.803L262.9 246.203L263.1 247.403L260.4 248.903L260.2 247.803Z" fill="#42E8E0"/>
<path d="M242.4 252.103L244.9 250.703L245.1 251.903L242.6 253.303L242.4 252.103Z" fill="#42E8E0"/>
<path d="M242.2 249.405L244 248.305L244.2 249.505L242.4 250.605L242.2 249.405Z" fill="#42E8E0"/>
<path d="M238.7 251.404L241.2 250.004L241.4 251.204L238.9 252.604L238.7 251.404Z" fill="#42E8E0"/>
<path d="M249.7 253.802L251.4 252.902L251.6 254.002L249.9 255.002L249.7 253.802Z" fill="#42E8E0"/>
<path d="M247.1 255.302L248.8 254.402L249 255.502L247.3 256.502L247.1 255.302Z" fill="#42E8E0"/>
<path d="M259.9 268.802L265.5 265.602L265.7 266.702L260.1 270.002L259.9 268.802Z" fill="#42E8E0"/>
<path d="M253.5 272.502L258.8 269.402L259 270.602L253.7 273.702L253.5 272.502Z" fill="#42E8E0"/>
<path d="M250.8 274.002L252.5 273.102L252.7 274.302L251 275.202L250.8 274.002Z" fill="#42E8E0"/>
<path d="M248.3 275.502L249.9 274.602L250.1 275.702L248.5 276.702L248.3 275.502Z" fill="#42E8E0"/>
<path d="M246.9 276.301L243.3 278.401L243.5 279.601L247.1 277.501L246.9 276.301Z" fill="#42E8E0"/>
<g opacity="0.8">
<path opacity="0.8" d="M104 352.001C102.6 352.001 101.2 351.601 99.9998 350.901L21.9998 305.901C21.1998 305.501 20.7998 304.701 20.7998 303.801C20.7998 302.901 21.2998 302.101 21.9998 301.701L71.0998 273.301L71.3998 273.501L153.1 320.701C153.9 321.101 154.3 321.901 154.3 322.801C154.3 323.701 153.8 324.501 153.1 324.901L108 351.001C106.8 351.601 105.4 352.001 104 352.001ZM100.6 349.901C102.7 351.101 105.3 351.101 107.4 349.901L152.5 323.801C152.9 323.601 153.1 323.201 153.1 322.701C153.1 322.301 152.9 321.901 152.5 321.701L71.0998 274.701H70.9998L22.4998 302.701C22.0998 302.901 21.8998 303.301 21.8998 303.801C21.8998 304.201 22.0998 304.601 22.4998 304.801L100.6 349.901Z" fill="url(#paint20_linear_953_41262)"/>
</g>
<path d="M71.0999 255.501L81.9999 191.101L81.0999 190.701L82.3999 189.901C82.6999 189.701 82.9999 189.701 83.3999 190.001L170.2 240.101C170.9 240.501 171.5 241.601 171.3 242.301L160.4 307.301C160.3 307.601 160.2 307.901 159.9 308.001L158.6 308.701L158.4 307.501H158.5L72.1999 257.701C71.4999 257.301 70.9999 256.201 71.0999 255.501Z" fill="url(#paint21_linear_953_41262)"/>
<path d="M169.7 241.901L171.1 241.301C171.3 241.701 171.3 242.101 171.3 242.401L160.4 307.401C160.3 307.701 160.2 308.001 159.9 308.101L158.6 308.801L158.4 307.601H158.5L154.1 305.101L169.7 241.901Z" fill="url(#paint22_linear_953_41262)"/>
<path d="M70.9 258.502L157.7 308.602C158.4 309.002 158.9 308.802 159.1 308.102L170 243.102C170.1 242.402 169.6 241.302 168.9 240.902L82.0999 190.802C81.3999 190.402 80.9 190.602 80.7 191.302L69.8 256.302C69.6 257.002 70.1 258.002 70.9 258.502Z" fill="#24126A"/>
<g opacity="0.51">
<path opacity="0.51" d="M83.1999 194.902L166.9 243.202L156.5 304.402L72.8999 256.102L83.1999 194.902Z" fill="#453C9E"/>
</g>
<path d="M16.2998 289.201L20.9998 291.701L68.4998 264.301C69.2998 263.801 70.6998 263.901 71.5998 264.401L153.5 311.701C154.3 311.301 157.9 309.501 157.9 309.501L156.2 314.001C156.1 314.201 156 314.401 155.7 314.501L105.7 343.501C104.9 344.001 103.5 343.901 102.6 343.401L18.6998 294.901C18.2998 294.701 18.0998 294.401 17.9998 294.201L16.2998 289.201Z" fill="url(#paint23_linear_953_41262)"/>
<path d="M16.9998 290.002L102.9 339.602C103.8 340.102 105.3 340.202 106.1 339.702L157.4 310.102C158.2 309.602 158.1 308.802 157.2 308.302L71.2998 258.702C70.3998 258.202 68.8998 258.102 68.0998 258.602L16.7998 288.202C15.9998 288.602 16.0998 289.402 16.9998 290.002Z" fill="url(#paint24_linear_953_41262)"/>
<path d="M17 289.502L102.9 339.102C103.8 339.602 105.3 339.702 106.1 339.202L157.4 309.602C157.7 309.402 157.8 309.302 157.9 309.002C158 309.402 157.9 309.802 157.4 310.002L106.1 339.602C105.3 340.102 103.9 340.002 102.9 339.502L17 289.902C16.4 289.502 16.1 289.002 16.3 288.602C16.4 289.002 16.6 289.302 17 289.502Z" fill="white"/>
<path d="M128.9 328.902V328.002C128.9 327.902 128.8 327.902 128.8 327.902L125.5 329.802C125.4 329.802 125.4 329.902 125.4 330.002V330.902C125.4 331.002 125.5 331.002 125.5 331.002L128.8 329.102C128.8 329.102 128.9 329.002 128.9 328.902Z" fill="#2842A2"/>
<path d="M123.9 331.703V330.803C123.9 330.703 123.8 330.703 123.8 330.703L120.5 332.603C120.4 332.603 120.4 332.703 120.4 332.803V333.703C120.4 333.803 120.5 333.803 120.5 333.803L123.8 331.903C123.8 331.903 123.9 331.803 123.9 331.703Z" fill="#2842A2"/>
<path d="M144 307.402L72.5999 266.202C72.0999 265.902 71.4999 265.902 71.0999 266.202L45.6999 280.802C45.2999 281.002 45.2999 281.502 45.6999 281.702L117.1 322.902C117.6 323.202 118.2 323.202 118.6 322.902L144.1 308.202C144.4 308.102 144.4 307.602 144 307.402Z" fill="#ADB1F2"/>
<path d="M144 308.302L143.7 308.402L72.5 267.302C72 267.002 71.4 267.002 71 267.302L45.8 281.902L45.5 281.802C45.1 281.602 45.1 281.102 45.5 280.902L70.9 266.202C71.4 265.902 72 265.902 72.4 266.202L143.8 307.402C144.4 307.602 144.4 308.102 144 308.302Z" fill="#9198DB"/>
<path d="M75.0999 273.303L135.6 308.203L138.2 306.503L77.8999 271.703L75.0999 273.303Z" fill="#24126A"/>
<path d="M71.2 278.805L126.1 310.505L128 308.405L73.9999 277.305L71.2 278.805Z" fill="#24126A"/>
<path d="M58 276.303L126.5 315.903L129.3 314.303L60.8 274.703L58 276.303Z" fill="#24126A"/>
<path d="M53.5999 278.805L122.1 318.405L124.9 316.805L56.3999 277.305L53.5999 278.805Z" fill="#24126A"/>
<path d="M49.2 281.405L117.7 320.905L120.5 319.305L51.9999 279.805L49.2 281.405Z" fill="#24126A"/>
<path d="M135 307.803L137.7 309.403L140.5 307.803L137.7 306.203L135 307.803Z" fill="#24126A"/>
<path d="M125.2 310.002L130.9 313.302L133.7 311.702L128 308.402L125.2 310.002Z" fill="#24126A"/>
<path d="M69.9 317.303L50.6 306.203C49.8 305.803 49.8 305.103 50.6 304.603L63.8 297.003C64.6 296.603 65.8 296.603 66.5 297.003L85.8 308.103C86.6 308.503 86.6 309.203 85.8 309.703L72.6 317.303C71.9 317.803 70.6 317.803 69.9 317.303Z" fill="url(#paint25_linear_953_41262)"/>
<path d="M85.8001 308.801L66.5001 297.701C65.7001 297.301 64.5001 297.301 63.8001 297.701L50.6001 305.301C50.4001 305.401 50.2001 305.601 50.1001 305.801C49.9001 305.401 50.1001 305.001 50.6001 304.701L63.8001 297.101C64.6001 296.701 65.8001 296.701 66.5001 297.101L85.8001 308.201C86.3001 308.501 86.5001 308.901 86.3001 309.301C86.2001 309.101 86.0001 308.901 85.8001 308.801Z" fill="#9198DB"/>
<g opacity="0.11">
<g opacity="0.11">
<path opacity="0.11" d="M71.2 258.6L157.1 308.2C158 308.7 159.5 308.8 160.3 308.3L211.6 278.7C212.4 278.2 212.3 277.4 211.4 276.9L125.5 227.3C124.6 226.8 123.1 226.7 122.3 227.2L71 256.8C70.1 257.2 70.2 258 71.2 258.6Z" fill="url(#paint26_linear_953_41262)"/>
<path opacity="0.11" d="M157.4 267.498L138.1 256.398C137.3 255.998 137.3 255.298 138.1 254.798L151.3 247.198C152.1 246.798 153.3 246.798 154 247.198L173.3 258.298C174.1 258.698 174.1 259.398 173.3 259.898L160.1 267.498C159.3 267.898 158.1 267.898 157.4 267.498Z" fill="url(#paint27_linear_953_41262)"/>
<path opacity="0.11" d="M173.2 258.898L153.9 247.798C153.1 247.398 151.9 247.398 151.2 247.798L138 255.398C137.8 255.498 137.6 255.698 137.5 255.898C137.3 255.498 137.5 255.098 138 254.798L151.2 247.198C152 246.798 153.2 246.798 153.9 247.198L173.2 258.298C173.7 258.598 173.9 258.998 173.7 259.398C173.6 259.198 173.5 259.098 173.2 258.898Z" fill="#9198DB"/>
<g opacity="0.11">
<path opacity="0.11" d="M181.7 284.8L110.3 243.6C109.8 243.3 109.2 243.3 108.8 243.6L83.3999 258.3C82.9999 258.5 82.9999 259 83.3999 259.2L154.7 300.5C155.2 300.8 155.8 300.8 156.2 300.5L181.7 285.8C182.1 285.6 182.1 285.1 181.7 284.8Z" fill="#ADB1F2"/>
<path opacity="0.11" d="M181.7 285.802L181.4 285.902L110.2 244.802C109.7 244.502 109.1 244.502 108.7 244.802L83.4999 259.402L83.1999 259.302C82.7999 259.102 82.7999 258.602 83.1999 258.402L108.6 243.702C109.1 243.402 109.7 243.402 110.1 243.702L181.5 284.902C182.1 285.102 182.1 285.602 181.7 285.802Z" fill="#9198DB"/>
<g opacity="0.11">
<path opacity="0.11" d="M90 257.297L152.2 293.197L149.7 294.697L87.5 258.797L90 257.297Z" fill="#24126A"/>
<path opacity="0.11" d="M96.5001 253.5L155.7 287.7L153.2 289.1L94.1001 255L96.5001 253.5Z" fill="#24126A"/>
<path opacity="0.11" d="M160.1 290.199L165.6 293.399L163.1 294.799L157.6 291.699L160.1 290.199Z" fill="#24126A"/>
<path opacity="0.11" d="M155.2 295L159.1 297.2L156.6 298.6L152.7 296.4L155.2 295Z" fill="#24126A"/>
<path opacity="0.11" d="M100.6 251.199L169.7 290.999L167.3 292.499L98.2 252.599L100.6 251.199Z" fill="#24126A"/>
<path opacity="0.11" d="M104.8 248.797L173.8 288.697L171.4 290.097L102.3 250.197L104.8 248.797Z" fill="#24126A"/>
<path opacity="0.11" d="M108.9 246.398L177.9 286.298L175.5 287.698L106.4 247.898L108.9 246.398Z" fill="#24126A"/>
</g>
</g>
</g>
</g>
<path d="M101.9 217.602L108.7 221.502L108.9 220.302L102.1 216.402L101.9 217.602Z" fill="#42E8E0"/>
<path d="M109.8 222.102L113.5 224.302L113.7 223.102L110 220.902L109.8 222.102Z" fill="#42E8E0"/>
<path d="M119.2 227.602L121.9 229.102L122.1 227.902L119.4 226.402L119.2 227.602Z" fill="#42E8E0"/>
<path d="M117.3 226.401L118.2 227.001L118.4 225.801L117.5 225.301L117.3 226.401Z" fill="#42E8E0"/>
<path d="M114.6 224.903L116.2 225.803L116.4 224.703L114.8 223.703L114.6 224.903Z" fill="#42E8E0"/>
<path d="M107.3 226.602L109.9 228.102L110.1 226.902L107.5 225.402L107.3 226.602Z" fill="#42E8E0"/>
<path d="M101 223.001L106.2 226.001L106.4 224.801L101.2 221.801L101 223.001Z" fill="#42E8E0"/>
<path d="M108.5 242.001L113.7 245.001L113.9 243.901L108.7 240.801L108.5 242.001Z" fill="#42E8E0"/>
<path d="M105.8 240.501L107.5 241.401L107.7 240.201L106 239.301L105.8 240.501Z" fill="#42E8E0"/>
<path d="M109.4 236.604L114.6 239.704L114.8 238.504L109.6 235.504L109.4 236.604Z" fill="#42E8E0"/>
<path d="M106.7 235.102L108.3 236.002L108.5 234.902L106.9 233.902L106.7 235.102Z" fill="#42E8E0"/>
<path d="M104.6 265.204L94.8001 259.504L94.6001 260.704L104.4 266.404L104.6 265.204Z" fill="#42E8E0"/>
<path d="M108.1 267.201L105.7 265.801L105.5 267.001L107.9 268.401L108.1 267.201Z" fill="#42E8E0"/>
<path d="M125.4 268.403L115.6 262.703L115.4 263.903L125.2 269.503L125.4 268.403Z" fill="#42E8E0"/>
<path d="M128.9 270.404L126.5 269.004L126.3 270.104L128.7 271.604L128.9 270.404Z" fill="#42E8E0"/>
<path d="M97.9 258.401L95.2 256.801L95 258.001L97.7 259.601L97.9 258.401Z" fill="#42E8E0"/>
<path d="M114.2 261.901L111.5 260.301L111.3 261.501L114 263.001L114.2 261.901Z" fill="#42E8E0"/>
<path d="M104.2 262.004L99 259.004L98.8 260.204L104 263.204L104.2 262.004Z" fill="#42E8E0"/>
<path d="M106.9 263.602L105.2 262.602L105 263.802L106.7 264.702L106.9 263.602Z" fill="#42E8E0"/>
<path d="M113.2 267.203L108 264.203L107.8 265.403L113 268.403L113.2 267.203Z" fill="#42E8E0"/>
<path d="M115.9 268.801L114.2 267.801L114 269.001L115.7 269.901L115.9 268.801Z" fill="#42E8E0"/>
<path d="M113.7 264.604L111 263.004L110.8 264.204L113.5 265.704L113.7 264.604Z" fill="#42E8E0"/>
<path d="M120 268.203L114.7 265.203L114.5 266.303L119.8 269.303L120 268.203Z" fill="#42E8E0"/>
<path d="M122.7 269.701L121 268.801L120.8 269.901L122.5 270.901L122.7 269.701Z" fill="#42E8E0"/>
<path d="M101.2 257.303L95.7 254.203L95.5 255.303L101 258.503L101.2 257.303Z" fill="#42E8E0"/>
<path d="M106.1 260.202L102.2 257.902L102 259.102L105.9 261.402L106.1 260.202Z" fill="#42E8E0"/>
<path d="M109.9 262.301L107.2 260.801L107 262.001L109.7 263.501L109.9 262.301Z" fill="#42E8E0"/>
<path d="M135.7 274.303L130.3 271.203L130.1 272.303L135.5 275.503L135.7 274.303Z" fill="#42E8E0"/>
<path d="M140.7 277.202L136.8 274.902L136.6 276.102L140.5 278.402L140.7 277.202Z" fill="#42E8E0"/>
<path d="M144.4 279.301L141.8 277.801L141.6 279.001L144.2 280.501L144.4 279.301Z" fill="#42E8E0"/>
<path d="M133.6 238.803L139.1 242.003L139.3 240.803L133.8 237.703L133.6 238.803Z" fill="#42E8E0"/>
<path d="M128.6 235.901L132.6 238.201L132.8 237.101L128.8 234.801L128.6 235.901Z" fill="#42E8E0"/>
<path d="M124.9 233.802L127.6 235.302L127.8 234.202L125.1 232.602L124.9 233.802Z" fill="#42E8E0"/>
<path d="M131.8 234.802L137.3 238.002L137.5 236.802L132 233.602L131.8 234.802Z" fill="#42E8E0"/>
<path d="M126.8 231.901L130.8 234.201L131 233.001L127 230.801L126.8 231.901Z" fill="#42E8E0"/>
<path d="M123.1 229.802L125.8 231.302L126 230.202L123.3 228.602L123.1 229.802Z" fill="#42E8E0"/>
<path d="M109.7 239.802L111.6 240.902L111.8 239.702L109.9 238.602L109.7 239.802Z" fill="#42E8E0"/>
<path d="M106.3 237.802L108.7 239.202L108.9 238.002L106.5 236.602L106.3 237.802Z" fill="#42E8E0"/>
<path d="M101.7 254.604L96.2 251.504L96 252.704L101.5 255.804L101.7 254.604Z" fill="#42E8E0"/>
<path d="M106.6 257.503L102.7 255.203L102.5 256.403L106.4 258.703L106.6 257.503Z" fill="#42E8E0"/>
<path d="M110.3 259.702L107.7 258.102L107.5 259.302L110.1 260.802L110.3 259.702Z" fill="#42E8E0"/>
<path d="M98.5001 249.901L96.6001 248.801L96.4001 250.001L98.3001 251.001L98.5001 249.901Z" fill="#42E8E0"/>
<path d="M102 251.904L99.5 250.504L99.3 251.604L101.8 253.004L102 251.904Z" fill="#42E8E0"/>
<path d="M106.9 254.704L103 252.504L102.8 253.604L106.7 255.904L106.9 254.704Z" fill="#42E8E0"/>
<path d="M112.2 232.403L114.1 233.403L114.3 232.303L112.4 231.203L112.2 232.403Z" fill="#42E8E0"/>
<path d="M108.8 230.403L111.2 231.803L111.4 230.603L109 229.203L108.8 230.403Z" fill="#42E8E0"/>
<path d="M103.8 227.501L107.7 229.801L107.9 228.601L104 226.301L103.8 227.501Z" fill="#42E8E0"/>
<path d="M115.1 236.702L119 239.002L119.2 237.802L115.3 235.602L115.1 236.702Z" fill="#42E8E0"/>
<path d="M108.6 233.202L113.9 236.302L114.1 235.102L108.8 232.102L108.6 233.202Z" fill="#42E8E0"/>
<path d="M105.9 231.704L107.6 232.604L107.8 231.504L106.1 230.504L105.9 231.704Z" fill="#42E8E0"/>
<path d="M103.4 230.204L105 231.204L105.2 230.004L103.6 229.004L103.4 230.204Z" fill="#42E8E0"/>
<path d="M103.7 245.403L108.9 248.403L109.1 247.203L103.9 244.203L103.7 245.403Z" fill="#42E8E0"/>
<path d="M101 243.802L102.7 244.802L102.9 243.602L101.2 242.602L101 243.802Z" fill="#42E8E0"/>
<path d="M104.1 248.502L105.9 249.602L106.1 248.402L104.3 247.402L104.1 248.502Z" fill="#42E8E0"/>
<path d="M110.6 246.403L112.4 247.403L112.6 246.303L110.8 245.203L110.6 246.403Z" fill="#42E8E0"/>
<path d="M113.2 247.903L117.6 250.403L117.8 249.303L113.4 246.703L113.2 247.903Z" fill="#42E8E0"/>
<path d="M118.4 250.903L121.1 252.403L121.3 251.203L118.6 249.703L118.4 250.903Z" fill="#42E8E0"/>
<path d="M100.6 246.505L103 247.905L103.2 246.805L100.8 245.305L100.6 246.505Z" fill="#42E8E0"/>
<path d="M100.4 249.302L102.2 250.302L102.4 249.202L100.6 248.102L100.4 249.302Z" fill="#42E8E0"/>
<path d="M96.9001 247.302L99.3001 248.702L99.5001 247.502L97.1001 246.102L96.9001 247.302Z" fill="#42E8E0"/>
<path d="M107.9 244.803L109.6 245.803L109.8 244.603L108.1 243.703L107.9 244.803Z" fill="#42E8E0"/>
<path d="M105.3 243.303L107 244.303L107.2 243.103L105.5 242.203L105.3 243.303Z" fill="#42E8E0"/>
<path d="M118.1 229.803L123.7 233.103L123.9 231.903L118.3 228.703L118.1 229.803Z" fill="#42E8E0"/>
<path d="M111.7 226.204L117 229.204L117.2 228.104L111.9 225.004L111.7 226.204Z" fill="#42E8E0"/>
<path d="M109 224.604L110.7 225.604L110.9 224.404L109.2 223.504L109 224.604Z" fill="#42E8E0"/>
<path d="M106.5 223.104L108.1 224.104L108.3 222.904L106.6 222.004L106.5 223.104Z" fill="#42E8E0"/>
<path d="M105 222.302L101.5 220.302L101.7 219.102L105.2 221.102L105 222.302Z" fill="#42E8E0"/>
<path d="M69.2 269.901L71.9 271.401L74.7 269.901L71.9 268.301L69.2 269.901Z" fill="#24126A"/>
<path d="M62.3999 273.799L68.0999 277.099L70.8999 275.499L65.1999 272.199L62.3999 273.799Z" fill="#24126A"/>
<path opacity="0.5" d="M247.3 166.1V0H131.8V166.1L189.5 199.4L247.3 166.1Z" fill="url(#paint28_linear_953_41262)"/>
<defs>
<linearGradient id="paint0_linear_953_41262" x1="16.2699" y1="194.512" x2="155.455" y2="194.512" gradientUnits="userSpaceOnUse">
<stop stop-color="#5761D7"/>
<stop offset="0.1779" stop-color="#5C66D9"/>
<stop offset="0.3876" stop-color="#6A73DF"/>
<stop offset="0.6134" stop-color="#8289E8"/>
<stop offset="0.849" stop-color="#A3A7F5"/>
<stop offset="1" stop-color="#BCBEFF"/>
</linearGradient>
<linearGradient id="paint1_linear_953_41262" x1="63.0367" y1="189.871" x2="202.296" y2="189.871" gradientUnits="userSpaceOnUse">
<stop stop-color="#C0BFF6"/>
<stop offset="0.2938" stop-color="#C5C4F7"/>
<stop offset="0.6399" stop-color="#D3D2F9"/>
<stop offset="1" stop-color="#E9E9FD"/>
</linearGradient>
<linearGradient id="paint2_linear_953_41262" x1="54.0012" y1="179.157" x2="89.6477" y2="179.157" gradientUnits="userSpaceOnUse">
<stop stop-color="#C0BFF6"/>
<stop offset="0.2938" stop-color="#C5C4F7"/>
<stop offset="0.6399" stop-color="#D3D2F9"/>
<stop offset="1" stop-color="#E9E9FD"/>
</linearGradient>
<linearGradient id="paint3_linear_953_41262" x1="56.7885" y1="172.732" x2="155.339" y2="172.732" gradientUnits="userSpaceOnUse">
<stop stop-color="#C0BFF6"/>
<stop offset="0.2938" stop-color="#C5C4F7"/>
<stop offset="0.6399" stop-color="#D3D2F9"/>
<stop offset="1" stop-color="#E9E9FD"/>
</linearGradient>
<linearGradient id="paint4_linear_953_41262" x1="56.7892" y1="198.007" x2="73.7113" y2="198.007" gradientUnits="userSpaceOnUse">
<stop stop-color="#5761D7"/>
<stop offset="0.1779" stop-color="#5C66D9"/>
<stop offset="0.3876" stop-color="#6A73DF"/>
<stop offset="0.6134" stop-color="#8289E8"/>
<stop offset="0.849" stop-color="#A3A7F5"/>
<stop offset="1" stop-color="#BCBEFF"/>
</linearGradient>
<linearGradient id="paint5_linear_953_41262" x1="362.813" y1="194.516" x2="223.628" y2="194.516" gradientUnits="userSpaceOnUse">
<stop stop-color="#5761D7"/>
<stop offset="0.1779" stop-color="#5C66D9"/>
<stop offset="0.3876" stop-color="#6A73DF"/>
<stop offset="0.6134" stop-color="#8289E8"/>
<stop offset="0.849" stop-color="#A3A7F5"/>
<stop offset="1" stop-color="#BCBEFF"/>
</linearGradient>
<linearGradient id="paint6_linear_953_41262" x1="316.046" y1="189.875" x2="176.787" y2="189.875" gradientUnits="userSpaceOnUse">
<stop stop-color="#C0BFF6"/>
<stop offset="0.2938" stop-color="#C5C4F7"/>
<stop offset="0.6399" stop-color="#D3D2F9"/>
<stop offset="1" stop-color="#E9E9FD"/>
</linearGradient>
<linearGradient id="paint7_linear_953_41262" x1="325.082" y1="179.161" x2="289.435" y2="179.161" gradientUnits="userSpaceOnUse">
<stop stop-color="#C0BFF6"/>
<stop offset="0.2938" stop-color="#C5C4F7"/>
<stop offset="0.6399" stop-color="#D3D2F9"/>
<stop offset="1" stop-color="#E9E9FD"/>
</linearGradient>
<linearGradient id="paint8_linear_953_41262" x1="322.295" y1="172.734" x2="223.744" y2="172.734" gradientUnits="userSpaceOnUse">
<stop stop-color="#C0BFF6"/>
<stop offset="0.2938" stop-color="#C5C4F7"/>
<stop offset="0.6399" stop-color="#D3D2F9"/>
<stop offset="1" stop-color="#E9E9FD"/>
</linearGradient>
<linearGradient id="paint9_linear_953_41262" x1="322.294" y1="198.007" x2="305.372" y2="198.007" gradientUnits="userSpaceOnUse">
<stop stop-color="#5761D7"/>
<stop offset="0.1779" stop-color="#5C66D9"/>
<stop offset="0.3876" stop-color="#6A73DF"/>
<stop offset="0.6134" stop-color="#8289E8"/>
<stop offset="0.849" stop-color="#A3A7F5"/>
<stop offset="1" stop-color="#BCBEFF"/>
</linearGradient>
<linearGradient id="paint10_linear_953_41262" x1="229.259" y1="266.893" x2="229.259" y2="212.612" gradientUnits="userSpaceOnUse">
<stop stop-color="#C0BFF6"/>
<stop offset="0.2938" stop-color="#C5C4F7"/>
<stop offset="0.6399" stop-color="#D3D2F9"/>
<stop offset="1" stop-color="#E9E9FD"/>
</linearGradient>
<linearGradient id="paint11_linear_953_41262" x1="229.259" y1="221.884" x2="229.259" y2="167.603" gradientUnits="userSpaceOnUse">
<stop stop-color="#C0BFF6"/>
<stop offset="0.2938" stop-color="#C5C4F7"/>
<stop offset="0.6399" stop-color="#D3D2F9"/>
<stop offset="1" stop-color="#E9E9FD"/>
</linearGradient>
<radialGradient id="paint12_radial_953_41262" cx="0" cy="0" r="1" gradientUnits="userSpaceOnUse" gradientTransform="translate(214.826 163.132) scale(2.0594)">
<stop stop-color="#FF2C9C"/>
<stop offset="0.0300632" stop-color="#F62F9F"/>
<stop offset="0.2023" stop-color="#C63EB0"/>
<stop offset="0.3737" stop-color="#9E4BBE"/>
<stop offset="0.5413" stop-color="#7F54C9"/>
<stop offset="0.7039" stop-color="#695BD1"/>
<stop offset="0.8594" stop-color="#5C60D5"/>
<stop offset="1" stop-color="#5761D7"/>
</radialGradient>
<linearGradient id="paint13_linear_953_41262" x1="207.714" y1="249.234" x2="308.006" y2="249.234" gradientUnits="userSpaceOnUse">
<stop stop-color="#C0BFF6"/>
<stop offset="0.2938" stop-color="#C5C4F7"/>
<stop offset="0.6399" stop-color="#D3D2F9"/>
<stop offset="1" stop-color="#E9E9FD"/>
</linearGradient>
<linearGradient id="paint14_linear_953_41262" x1="207.714" y1="274.955" x2="224.936" y2="274.955" gradientUnits="userSpaceOnUse">
<stop stop-color="#5761D7"/>
<stop offset="0.1779" stop-color="#5C66D9"/>
<stop offset="0.3876" stop-color="#6A73DF"/>
<stop offset="0.6134" stop-color="#8289E8"/>
<stop offset="0.849" stop-color="#A3A7F5"/>
<stop offset="1" stop-color="#BCBEFF"/>
</linearGradient>
<linearGradient id="paint15_linear_953_41262" x1="221.151" y1="303.868" x2="362.797" y2="303.868" gradientUnits="userSpaceOnUse">
<stop stop-color="#5761D7"/>
<stop offset="0.1779" stop-color="#5C66D9"/>
<stop offset="0.3876" stop-color="#6A73DF"/>
<stop offset="0.6134" stop-color="#8289E8"/>
<stop offset="0.849" stop-color="#A3A7F5"/>
<stop offset="1" stop-color="#BCBEFF"/>
</linearGradient>
<linearGradient id="paint16_linear_953_41262" x1="268.744" y1="299.146" x2="410.466" y2="299.146" gradientUnits="userSpaceOnUse">
<stop stop-color="#C0BFF6"/>
<stop offset="0.2938" stop-color="#C5C4F7"/>
<stop offset="0.6399" stop-color="#D3D2F9"/>
<stop offset="1" stop-color="#E9E9FD"/>
</linearGradient>
<linearGradient id="paint17_linear_953_41262" x1="292.745" y1="307.192" x2="329.022" y2="307.192" gradientUnits="userSpaceOnUse">
<stop stop-color="#C0BFF6"/>
<stop offset="0.2938" stop-color="#C5C4F7"/>
<stop offset="0.6399" stop-color="#D3D2F9"/>
<stop offset="1" stop-color="#E9E9FD"/>
</linearGradient>
<linearGradient id="paint18_linear_953_41262" x1="214.598" y1="267.731" x2="356.32" y2="267.731" gradientUnits="userSpaceOnUse">
<stop stop-color="#C0BFF6"/>
<stop offset="0.2938" stop-color="#C5C4F7"/>
<stop offset="0.6399" stop-color="#D3D2F9"/>
<stop offset="1" stop-color="#E9E9FD"/>
</linearGradient>
<linearGradient id="paint19_linear_953_41262" x1="205.271" y1="257.327" x2="241.547" y2="257.327" gradientUnits="userSpaceOnUse">
<stop stop-color="#C0BFF6"/>
<stop offset="0.2938" stop-color="#C5C4F7"/>
<stop offset="0.6399" stop-color="#D3D2F9"/>
<stop offset="1" stop-color="#E9E9FD"/>
</linearGradient>
<linearGradient id="paint20_linear_953_41262" x1="20.8565" y1="312.697" x2="154.372" y2="312.697" gradientUnits="userSpaceOnUse">
<stop stop-color="#5761D7"/>
<stop offset="0.1406" stop-color="#5C60D5"/>
<stop offset="0.2961" stop-color="#695BD1"/>
<stop offset="0.4587" stop-color="#7F54C9"/>
<stop offset="0.6263" stop-color="#9E4BBE"/>
<stop offset="0.7977" stop-color="#C63EB0"/>
<stop offset="0.9699" stop-color="#F62F9F"/>
<stop offset="1" stop-color="#FF2C9C"/>
</linearGradient>
<linearGradient id="paint21_linear_953_41262" x1="171.37" y1="249.234" x2="71.0769" y2="249.234" gradientUnits="userSpaceOnUse">
<stop stop-color="#C0BFF6"/>
<stop offset="0.2938" stop-color="#C5C4F7"/>
<stop offset="0.6399" stop-color="#D3D2F9"/>
<stop offset="1" stop-color="#E9E9FD"/>
</linearGradient>
<linearGradient id="paint22_linear_953_41262" x1="171.369" y1="274.955" x2="154.148" y2="274.955" gradientUnits="userSpaceOnUse">
<stop stop-color="#5761D7"/>
<stop offset="0.1779" stop-color="#5C66D9"/>
<stop offset="0.3876" stop-color="#6A73DF"/>
<stop offset="0.6134" stop-color="#8289E8"/>
<stop offset="0.849" stop-color="#A3A7F5"/>
<stop offset="1" stop-color="#BCBEFF"/>
</linearGradient>
<linearGradient id="paint23_linear_953_41262" x1="157.933" y1="303.868" x2="16.2864" y2="303.868" gradientUnits="userSpaceOnUse">
<stop stop-color="#5761D7"/>
<stop offset="0.1779" stop-color="#5C66D9"/>
<stop offset="0.3876" stop-color="#6A73DF"/>
<stop offset="0.6134" stop-color="#8289E8"/>
<stop offset="0.849" stop-color="#A3A7F5"/>
<stop offset="1" stop-color="#BCBEFF"/>
</linearGradient>
<linearGradient id="paint24_linear_953_41262" x1="110.339" y1="299.146" x2="-31.3827" y2="299.146" gradientUnits="userSpaceOnUse">
<stop stop-color="#C0BFF6"/>
<stop offset="0.2938" stop-color="#C5C4F7"/>
<stop offset="0.6399" stop-color="#D3D2F9"/>
<stop offset="1" stop-color="#E9E9FD"/>
</linearGradient>
<linearGradient id="paint25_linear_953_41262" x1="86.3389" y1="307.192" x2="50.0621" y2="307.192" gradientUnits="userSpaceOnUse">
<stop stop-color="#C0BFF6"/>
<stop offset="0.2938" stop-color="#C5C4F7"/>
<stop offset="0.6399" stop-color="#D3D2F9"/>
<stop offset="1" stop-color="#E9E9FD"/>
</linearGradient>
<linearGradient id="paint26_linear_953_41262" x1="164.485" y1="267.731" x2="22.7633" y2="267.731" gradientUnits="userSpaceOnUse">
<stop stop-color="#C0BFF6"/>
<stop offset="0.2938" stop-color="#C5C4F7"/>
<stop offset="0.6399" stop-color="#D3D2F9"/>
<stop offset="1" stop-color="#E9E9FD"/>
</linearGradient>
<linearGradient id="paint27_linear_953_41262" x1="173.813" y1="257.327" x2="137.536" y2="257.327" gradientUnits="userSpaceOnUse">
<stop stop-color="#C0BFF6"/>
<stop offset="0.2938" stop-color="#C5C4F7"/>
<stop offset="0.6399" stop-color="#D3D2F9"/>
<stop offset="1" stop-color="#E9E9FD"/>
</linearGradient>
<linearGradient id="paint28_linear_953_41262" x1="189.542" y1="199.418" x2="189.542" y2="0" gradientUnits="userSpaceOnUse">
<stop stop-color="#42E8E0"/>
<stop offset="1" stop-color="#0F054C" stop-opacity="0"/>
</linearGradient>
</defs>
</svg>
