<svg width="49" height="48" viewBox="0 0 49 48" fill="none" xmlns="http://www.w3.org/2000/svg">
<circle cx="24.1011" cy="24" r="23" fill="#23A628" stroke="#1D1D1D" stroke-width="2"/>
<path d="M24.1011 13.85C23.8311 13.85 23.5511 13.92 23.3211 14.05L15.8811 18.35C15.4011 18.63 15.1011 19.15 15.1011 19.71V28.29C15.1011 28.85 15.4011 29.37 15.8811 29.65L17.8311 30.77C18.7811 31.23 19.1011 31.24 19.5411 31.24C20.9411 31.24 21.7511 30.39 21.7511 28.91V20.44C21.7511 20.32 21.6511 20.22 21.5311 20.22H20.6011C20.4711 20.22 20.3711 20.32 20.3711 20.44V28.91C20.3711 29.57 19.6911 30.22 18.6011 29.67L16.5511 28.5C16.5174 28.4762 16.4899 28.4448 16.4707 28.4082C16.4516 28.3717 16.4415 28.3312 16.4411 28.29V19.71C16.4411 19.62 16.4811 19.54 16.5511 19.5L23.9911 15.21C24.0511 15.17 24.1511 15.17 24.2111 15.21L31.6511 19.5C31.7211 19.54 31.7611 19.62 31.7611 19.71V28.29C31.7611 28.37 31.7211 28.45 31.6511 28.5L24.2111 32.79C24.1511 32.83 24.0511 32.83 23.9811 32.79L22.1011 31.65C22.0211 31.62 21.9411 31.61 21.8911 31.64C21.3611 31.94 21.2611 32 20.7711 32.15C20.6511 32.19 20.4611 32.26 20.8411 32.47L23.3211 33.94C23.5611 34.08 23.8211 34.15 24.1011 34.15C24.3811 34.15 24.6411 34.08 24.8811 33.94L32.3211 29.65C32.8011 29.37 33.1011 28.85 33.1011 28.29V19.71C33.1011 19.15 32.8011 18.63 32.3211 18.35L24.8811 14.05C24.6511 13.92 24.3811 13.85 24.1011 13.85ZM26.1011 20C23.9811 20 22.7111 20.89 22.7111 22.39C22.7111 24 23.9711 24.47 26.0111 24.67C28.4411 24.91 28.6311 25.27 28.6311 25.75C28.6311 26.58 27.9611 26.93 26.4011 26.93C24.4211 26.93 24.0011 26.44 23.8511 25.46C23.8405 25.4093 23.813 25.3638 23.7729 25.3311C23.7329 25.2983 23.6828 25.2803 23.6311 25.28H22.6711C22.5511 25.28 22.4611 25.37 22.4611 25.5C22.4611 26.74 23.1411 28.24 26.4011 28.24C28.7511 28.24 30.1011 27.31 30.1011 25.69C30.1011 24.08 29.0211 23.66 26.7311 23.35C24.4211 23.05 24.1911 22.89 24.1911 22.35C24.1911 21.9 24.3911 21.3 26.1011 21.3C27.6011 21.3 28.1911 21.63 28.4211 22.66C28.4411 22.76 28.5311 22.83 28.6311 22.83H29.6011C29.6511 22.83 29.7111 22.81 29.7511 22.76C29.7911 22.72 29.8211 22.66 29.8011 22.6C29.6611 20.82 28.4811 20 26.1011 20Z" fill="white"/>
</svg>
